<svg xmlns="http://www.w3.org/2000/svg" xmlns:xlink="http://www.w3.org/1999/xlink" width="169" height="168" viewBox="0 0 169 168"><defs><style>.a,.o{fill:#fff;}.a{stroke:#707070;}.b{clip-path:url(#a);}.c{fill:#3f332b;}.d{fill:#261e18;}.e{fill:#5e4f45;}.f{fill:#352b25;}.g{fill:#25302c;}.h{fill:#131917;}.i{fill:#d4d6d5;}.j{fill:#c94949;}.k{fill:#f5bc83;}.l{fill:#e48f61;}.m{fill:#6a371a;}.n{fill:#8e5931;}.p{fill:#b7b5b2;}.q{fill:#b57e59;}.r{fill:#f0f2f1;}.s{fill:#1b2320;}.t{fill:#e5eae8;}.u{stroke:none;}.v{fill:none;}</style><clipPath id="a"><circle class="a" cx="84" cy="84" r="84" transform="translate(545 2777)"/></clipPath></defs><g transform="translate(-1356 -1724)"><g class="a" transform="translate(1356 1724)"><circle class="u" cx="84" cy="84" r="84"/><circle class="v" cx="84" cy="84" r="83.5"/></g><g class="b" transform="translate(812 -1053)"><g transform="translate(-219.876 2656.285)"><g transform="translate(869.616 618.106)"><path class="c" d="M932.367,944.745h34.878s2.049-9.313-5.229-21.481l-23.5.337S931.755,933.185,932.367,944.745Z" transform="translate(-932.328 -923.264)"/><rect class="d" width="34.878" height="5.476" transform="translate(0.312 21.481)"/><path class="e" d="M965.68,939.535c0,2.373-5.89,4.3-13.155,4.3s-13.156-1.924-13.156-4.3,5.89-4.3,13.156-4.3S965.68,937.162,965.68,939.535Z" transform="translate(-935.046 -927.887)"/></g><g transform="translate(769.876 613.048)"><path class="c" d="M834.931,917.958s2.7,13.871.663,23.606H769.917s-2.243-14.26,26.312-14.227l18.318-12.312Z" transform="translate(-769.876 -915.025)"/><path class="d" d="M835.859,963.727H814.247l-.268-3.871a64.556,64.556,0,0,1-21.613,3.622c-6.056,0-21.979.188-21.979.188v-5.415h65.472Z" transform="translate(-770.073 -931.712)"/><path class="e" d="M794.938,935.062s-.964,10.062-23.628,9.584C771.31,944.646,774.431,935.487,794.938,935.062Z" transform="translate(-770.429 -922.76)"/><path class="f" d="M842.363,947.794s.636-16.531,21.531-16.631c0,0,1.109,11.156-.522,16.631Z" transform="translate(-797.858 -921.255)"/></g><path class="g" d="M821.994,553.942,820.77,780.693s17.847,8.87,34.674,1.911l6.43-188.826,4.968-.244,24.3,189.056s12.849,5.821,31.818-1.132L903.7,553.942Z" transform="translate(-19.647 -162.587)"/><path class="h" d="M821.241,763.916l-.471,87.178s17.847,8.886,34.674,1.927l3.972-116.63C850,773.643,829.531,768.007,821.241,763.916Z" transform="translate(-19.647 -233.019)"/><path class="h" d="M950.277,758.738c-12.6,33.985-29.278,12.177-36.43.022l13.222,102.888s12.849,5.791,31.818-1.162Z" transform="translate(-55.578 -241.645)"/><path class="h" d="M904.642,553.942H823.207v31.512c6.731,2.924,20.054,7.624,39.605,11.043l.07-2.727,4.934-.24.533,3.889a301.519,301.519,0,0,0,39.881,3.3Z" transform="translate(-20.588 -162.587)"/><path class="i" d="M908.362,318.629c-12.378-2.682-27.556-4.258-43.259-1.8.1,10.188.4,54.185,10.479,89.155C875.582,405.983,903.879,342.088,908.362,318.629Z" transform="translate(-36.761 -70.581)"/><path class="j" d="M875.154,335.86l5.622,9.869-13.723,60.384,9.305,11.984L886,409.4l.931-63.22,4.886-7.8-6.954-10.052Z" transform="translate(-37.514 -75.493)"/><g transform="translate(837.789 219.414)"><path class="k" d="M880.906,303.424l-.416,15.052,25.078.685.542-19.581A49.618,49.618,0,0,1,880.906,303.424Z" transform="translate(-880.49 -283.809)"/><path class="l" d="M906.371,289.664l.416-15.085-25.078-.686-.542,19.615A49.618,49.618,0,0,0,906.371,289.664Z" transform="translate(-880.751 -273.893)"/></g><path class="m" d="M900.518,184.6s-24.707,10.212-30.487,9.293-23.943-10.714-23.943-10.714a30.425,30.425,0,0,0,2.122,20.454l52.256,12.7,11.7,2.905c2.873-9.287,4.127-16.46,4.389-22C905.878,194.265,900.518,184.6,900.518,184.6Z" transform="translate(-29.064 -19.462)"/><path class="n" d="M906.79,159.22c-3.757-19.123-36.109-22.036-36.109-22.036-16.516-11.154-10.786,2.344-10.786,2.344-27.991-11.568-15.707,14.635-15.707,14.635-10.534-.9-.317,9.561-.317,9.561s18.163,9.8,23.943,10.714,30.487-9.293,30.487-9.293,5.36,9.66,16.04,12.643C915.139,160.972,906.79,159.22,906.79,159.22Z" transform="translate(-26.848)"/><path class="k" d="M909.57,209.416l-5.027,6.732a45.855,45.855,0,0,1-1.741-6.154,82.078,82.078,0,0,1-.933-24.5c-28.039,9.232-51.164.381-51.164.381.628,13.628-6.655,43.841,3.021,59.7a20.227,20.227,0,0,0,13.82,9.541c28.547,5.921,38.094-24.1,38.094-24.1s9.663-.167,12.169-13.292C919.888,206.861,909.57,209.416,909.57,209.416Z" transform="translate(-30.414 -20.356)"/><path class="m" d="M869.637,232.194c-.29,2.929-2.016,5.16-3.856,4.979s-3.1-2.7-2.805-5.633,2.018-5.16,3.857-4.98S869.929,229.262,869.637,232.194Z" transform="translate(-35.924 -36.203)"/><path class="m" d="M910.979,234.471c-.289,2.93-2.016,5.161-3.856,4.98s-3.1-2.7-2.8-5.633,2.018-5.161,3.856-4.98S911.271,231.54,910.979,234.471Z" transform="translate(-51.883 -37.082)"/><g transform="translate(832.774 197.654)"><path class="l" d="M880.643,251.811c-5.822,1.48-8.447-1.5-8.317-4.13a3.763,3.763,0,0,1,2.972-3.5c3.541-.855,6.609-5.681,6.641-5.73h0a11.148,11.148,0,0,1-6.55,7.365c-.995.41-1.645.9-1.689,1.742-.073,1.473,1.748,3.93,6.943,4.254Z" transform="translate(-872.321 -238.451)"/></g><g transform="translate(823.855 180.763)"><path class="n" d="M857.954,213.317l-.159-1.678a44.059,44.059,0,0,1,12.9-.375l-.073,2.615A56.639,56.639,0,0,0,857.954,213.317Z" transform="translate(-857.795 -210.94)"/></g><g transform="translate(851.985 180.98)"><path class="n" d="M916.436,216.371c-4.415-1.961-12.746-2.7-12.824-2.724l.67-2.354c.325.083,7.881.724,12.791,3.657Z" transform="translate(-903.612 -211.293)"/></g><g transform="translate(833.866 216.238)"><path class="o" d="M874.1,268.72l1.345,9.127s12.723,4.378,15.409-8.068C890.854,269.779,881.237,270.911,874.1,268.72Z" transform="translate(-874.1 -268.72)"/><path class="p" d="M875.181,275.019s6.266,1.83,10.328.844c0,0-2.779,1.736-10.072.441Z" transform="translate(-874.517 -271.152)"/></g><path class="q" d="M848.977,139.028s11.4,12.323,39.422,13.7c0,0-18.942,11.773-43.441,2.067C844.958,154.793,839.362,139.434,848.977,139.028Z" transform="translate(-28.359 -2.417)"/><path class="g" d="M918.543,328.553a133.959,133.959,0,0,0-31.687-11.527c-4.484,23.458-30.355,89.158-30.355,89.158-10.081-34.97-7.98-79.871-8.079-90.059-7.918,1.239-17.714,2.594-25.606,6.26,0,0-10.631,47.473-5.95,155.569,0,0,35.335,12.632,92.048,1.879,0,0-5.335-75.707,2.032-105.31C910.946,374.523,916.212,347.16,918.543,328.553Z" transform="translate(-17.68 -70.782)"/><path class="h" d="M911.568,390.77s2.35-12.211,4.6-25.865l-9.72,2.714c-2.73,15.883-13.168,39.317-13.168,39.317-6.179,6.915-19,2.487-30.7,1.319-3.246,8.546-5.462,14.176-5.462,14.176-1.44-4.993-2.629-10.189-3.614-15.456-8.8-1.571-17.97-3.589-20.41-4.277-6.283-1.77-7.225-28.773-7.225-28.773l-5.551-15.713c-1.734,16.75-3.621,46.165-2.862,91.632,7.715,1.281,23.469,2.836,38.444-2.186,0,0,22.7,7.835,31.129,8.641,6.319.6,15.012,5.367,20.541,13.986C906.894,447.106,906.742,410.163,911.568,390.77Z" transform="translate(-18.303 -87.029)"/><path class="g" d="M810.93,326.268s-12.273-3.894-21.451,40.824c-6.6,32.16-5.225,53.151-1.276,54.453s28.994,12,72.357-8.8l-5.145-7.2-42.394-5.668.367-40.82Z" transform="translate(-5.794 -74.664)"/><path class="r" d="M875.491,308.388s1.159,8.7,9.185,12.235c0,0,14.941-2.541,15.993-12.254l7.538,7.313s-4.617,13.9-16.2,18.2l-7.237-10.972-9.836,9.05s-9.1-10.825-8.316-17.9Z" transform="translate(-37.329 -67.788)"/><path class="s" d="M853.049,349.317l-4.378,3.955s11.7,45.779,20.116,62.376c0,0,24.282-40.441,31.927-58.114l-3.655-5.766,8.015-2.449s3.213-16.728,2.313-30.189c-2.614-.772-5.356-1.491-8.183-2.1-4.484,23.458-30.355,89.158-30.355,89.158-10.081-34.97-7.98-79.871-8.078-90.059-2.326.363-4.874.9-7.508,1.558l-5.6,26.436Z" transform="translate(-30.029 -70.782)"/><path class="s" d="M873.105,451.881l-42.394-5.668s16.838,13.816,18.392,23.669a149.676,149.676,0,0,0,29.147-10.8Z" transform="translate(-23.484 -121)"/><path class="k" d="M856.931,439.683c-22.486-10.829-26.22,2.361-26.22,2.361,6.871,4.8,13.346,8.887,19.42,12.375A116.485,116.485,0,0,0,856.931,439.683Z" transform="translate(-23.484 -116.831)"/><path class="t" d="M876.044,441.519l-6.126-.933a19.59,19.59,0,0,0-7.577,15.829q3.189,1.833,6.226,3.443C871.32,450.96,874.25,445.638,876.044,441.519Z" transform="translate(-35.695 -118.828)"/><path class="g" d="M939.845,336.326c-11.789-2.507-22.423,70.725-22.423,70.725l-37.88-6.589c-3.079,3.137-9.211,11.817-8.648,20.535,37.573,19.982,58.9,14.627,58.9,14.627s14.117,1.949,18.193-45.69S939.845,336.326,939.845,336.326Z" transform="translate(-38.982 -78.556)"/><path class="k" d="M922.218,438.413s14.261-9.3,17.073-9.916,13.19-4.22,13.19-4.22a2.338,2.338,0,0,1-.459,3.195c-1.683,1.673-8.006,3.194-8.006,3.194s7.395.912,10.3,2.586a2.124,2.124,0,0,1-2.09,3.143s3.773,2.433-.816,3.357c0,0-4.538-1.065-6.272-.721l5.813,4.309s.306,1.318-2.243,1.217-6.222-5.222-11.46-3.53Z" transform="translate(-58.809 -112.532)"/></g></g></g></svg>