<svg xmlns="http://www.w3.org/2000/svg" width="23.217" height="25.185" viewBox="0 0 23.217 25.185"><defs><style>.a{fill:#005689;}</style></defs><g transform="translate(-20)"><g transform="translate(40.299 5.024)"><path class="a" d="M434.853,103.043l-.355-.917-1.835.711.355.917a8.789,8.789,0,0,1,.6,3.186v4.525h1.968V106.94A10.747,10.747,0,0,0,434.853,103.043Z" transform="translate(-432.663 -102.126)"/></g><g transform="translate(20 5.024)"><path class="a" d="M21.084,102.127l-.355.917a10.746,10.746,0,0,0-.729,3.9v4.525h1.968v-4.525a8.788,8.788,0,0,1,.6-3.186l.355-.917Z" transform="translate(-20 -102.127)"/></g><g transform="translate(21.181)"><path class="a" d="M64.856,19.282h-.984a1.519,1.519,0,0,1-1.217-.528,3,3,0,0,1-.554-1.949V10.035a7.709,7.709,0,0,0-6.69-7.61V0H53.444V2.425a7.709,7.709,0,0,0-6.69,7.61v7.083a2.409,2.409,0,0,1-.531,1.65,1.622,1.622,0,0,1-1.24.514H44v2.755h7.94a2.558,2.558,0,1,0,4.977,0h7.94ZM54.428,23.217a.59.59,0,1,1,.59-.59A.591.591,0,0,1,54.428,23.217ZM47.7,20.069a4.335,4.335,0,0,0,1.023-2.951V10.035a5.728,5.728,0,0,1,5.622-5.705h.167a5.728,5.728,0,0,1,5.622,5.705v6.771a4.9,4.9,0,0,0,1.02,3.222l.036.042Z" transform="translate(-44)"/></g></g></svg>