<svg xmlns="http://www.w3.org/2000/svg" width="19.707" height="23.356" viewBox="0 0 19.707 23.356"><defs><style>.a{fill:#005689;}</style></defs><g transform="translate(-40)"><g transform="translate(48.941 10.17)"><rect class="a" width="1.825" height="9.534"/></g><g transform="translate(52.591 10.17)"><rect class="a" width="1.825" height="9.534"/></g><g transform="translate(45.292 10.17)"><rect class="a" width="1.825" height="9.534"/></g><g transform="translate(40)"><path class="a" d="M56.97,3.327H54.187v-.59A2.74,2.74,0,0,0,51.45,0H48.257A2.74,2.74,0,0,0,45.52,2.737v.59H42.737A2.74,2.74,0,0,0,40,6.064V8.348h1.825V20.619a2.74,2.74,0,0,0,2.737,2.737H55.145a2.74,2.74,0,0,0,2.737-2.737V8.348h1.825V6.064A2.74,2.74,0,0,0,56.97,3.327Zm-9.625-.59a.913.913,0,0,1,.912-.912H51.45a.913.913,0,0,1,.912.912v.59H47.344Zm8.713,17.882a.913.913,0,0,1-.912.912H44.562a.913.913,0,0,1-.912-.912V8.348H56.057Zm1.825-14.1H41.825V6.064a.913.913,0,0,1,.912-.912H56.97a.913.913,0,0,1,.912.912Z" transform="translate(-40)"/></g></g></svg>